<svg width="24" height="17" viewBox="0 0 24 17" fill="none" xmlns="http://www.w3.org/2000/svg">
<path d="M20.6409 6.95086L19.0181 5.07207C18.67 4.66944 18.0968 4.37564 17.4245 4.25526C16.7522 4.13489 16.0359 4.19779 15.4331 4.43015C15.0969 4.55991 14.8085 4.73839 14.5893 4.95245L12.9562 3.06802C12.7257 2.80171 12.3944 2.58059 11.9955 2.42686C11.5966 2.27313 11.1442 2.1922 10.6837 2.1922C10.2232 2.1922 9.77077 2.27313 9.37189 2.42686C8.97301 2.58059 8.64169 2.80171 8.41119 3.06802C7.93182 2.81588 7.33593 2.68316 6.72596 2.69267C6.11599 2.70219 5.53003 2.85335 5.06881 3.12017C4.60758 3.38699 4.2999 3.75281 4.19865 4.15474C4.0974 4.55667 4.2089 4.96961 4.514 5.32257L4.66306 5.49542C4.27517 5.51552 3.89901 5.59364 3.56243 5.72401C2.95962 5.95663 2.51982 6.33969 2.33979 6.78893C2.15976 7.23816 2.25423 7.71677 2.60243 8.11947L6.35244 12.4607C6.89195 13.0886 7.61242 13.6388 8.4722 14.0795C9.33197 14.5202 10.314 14.8428 11.3615 15.0284C12.0624 15.1535 12.7848 15.2166 13.5102 15.2163C14.9572 15.2146 16.3781 14.9588 17.6303 14.4744C18.8825 13.99 19.922 13.2942 20.6444 12.4567C21.3668 11.6191 21.7468 10.6694 21.7462 9.70282C21.7456 8.73621 21.3644 7.78671 20.6409 6.94961V6.95086ZM20.0165 10.8738C19.6707 11.735 18.9505 12.5084 17.9468 13.0962C16.9432 13.6841 15.7011 14.0599 14.3778 14.1763C13.0544 14.2926 11.7091 14.1443 10.5119 13.75C9.31471 13.3557 8.31941 12.7331 7.65181 11.961L3.90181 7.61971C3.75906 7.44739 3.72327 7.24453 3.80214 7.05477C3.88101 6.86501 4.06824 6.70351 4.32354 6.60502C4.57884 6.50654 4.88182 6.47893 5.16728 6.52815C5.45274 6.57737 5.69787 6.69947 5.84994 6.86819L7.65275 8.9549C7.70054 9.0137 7.76548 9.0655 7.84373 9.10726C7.92198 9.14902 8.01196 9.17988 8.10835 9.19804C8.20475 9.21619 8.30561 9.22126 8.40499 9.21295C8.50437 9.20464 8.60025 9.18312 8.68697 9.14966C8.7737 9.11619 8.84951 9.07147 8.90994 9.01811C8.97037 8.96476 9.01419 8.90386 9.03882 8.83901C9.06344 8.77416 9.06838 8.70667 9.05333 8.64053C9.03828 8.57438 9.00355 8.51092 8.95119 8.45389L5.81244 4.82156C5.73534 4.73602 5.68454 4.64108 5.66299 4.54228C5.64144 4.44348 5.64958 4.3428 5.68693 4.24613C5.72429 4.14945 5.7901 4.05872 5.88054 3.97922C5.97097 3.89973 6.08421 3.83307 6.21364 3.78314C6.34308 3.73321 6.4861 3.70101 6.63438 3.68842C6.78265 3.67583 6.93319 3.6831 7.0772 3.70981C7.22122 3.73652 7.35582 3.78213 7.47315 3.84399C7.59049 3.90584 7.68819 3.98269 7.76056 4.07005L10.6874 7.45187C10.7352 7.51066 10.8002 7.56247 10.8784 7.60423C10.9567 7.64599 11.0466 7.67685 11.143 7.695C11.2394 7.71316 11.3403 7.71823 11.4397 7.70992C11.5391 7.70161 11.6349 7.68009 11.7217 7.64663C11.8084 7.61316 11.8842 7.56843 11.9446 7.51508C12.0051 7.46173 12.0489 7.40083 12.0735 7.33598C12.0981 7.27113 12.1031 7.20364 12.088 7.1375C12.073 7.07135 12.0382 7.00789 11.9859 6.95086L9.70962 4.32055C9.63253 4.23501 9.58173 4.14007 9.56018 4.04127C9.53863 3.94247 9.54677 3.84179 9.58412 3.74512C9.62147 3.64844 9.68729 3.5577 9.77772 3.47821C9.86816 3.39872 9.9814 3.33206 10.1108 3.28213C10.2403 3.2322 10.3833 3.2 10.5316 3.18741C10.6798 3.17482 10.8304 3.18209 10.9744 3.2088C11.1184 3.23551 11.253 3.28112 11.3703 3.34298C11.4877 3.40483 11.5854 3.48168 11.6577 3.56904L14.7909 7.1951C14.0611 7.69014 13.6105 8.33877 13.5159 9.03067C13.4212 9.72258 13.6882 10.415 14.2715 10.9903C14.3834 11.1002 14.5561 11.176 14.7516 11.2009C14.9471 11.2258 15.1494 11.1978 15.314 11.123C15.4786 11.0483 15.592 10.9329 15.6293 10.8023C15.6666 10.6717 15.6246 10.5366 15.5127 10.4266C15.082 10.0005 14.9129 9.48008 15.0405 8.97302C15.1681 8.46595 15.5825 8.01104 16.1981 7.70237C16.3448 7.62889 16.4461 7.52204 16.4829 7.40203C16.5197 7.28202 16.4894 7.15716 16.3977 7.05106L15.7715 6.32459C15.6919 6.23905 15.6388 6.14367 15.6154 6.04414C15.592 5.94462 15.5989 5.84297 15.6355 5.74524C15.6721 5.64751 15.7378 5.55569 15.8286 5.47525C15.9194 5.39482 16.0334 5.32739 16.164 5.27699C16.2946 5.22659 16.439 5.19425 16.5887 5.18188C16.7384 5.16951 16.8902 5.17737 17.0353 5.20499C17.1803 5.23261 17.3155 5.27943 17.4329 5.34267C17.5503 5.4059 17.6475 5.48426 17.7187 5.57308L19.3415 7.45187C19.7868 7.96396 20.0757 8.52993 20.1915 9.11706C20.3074 9.70419 20.2479 10.3008 20.0165 10.8725V10.8738ZM17.2734 2.6741C17.3238 2.54581 17.4484 2.43611 17.6197 2.36908C17.7911 2.30204 17.9952 2.28314 18.1874 2.31651C18.9037 2.44261 19.5754 2.66258 20.1633 2.96361C20.7512 3.26464 21.2437 3.64074 21.6121 4.07005L21.6431 4.10574C21.6954 4.16278 21.7302 4.22624 21.7452 4.29238C21.7603 4.35852 21.7553 4.42601 21.7307 4.49086C21.7061 4.55571 21.6622 4.61661 21.6018 4.66996C21.5414 4.72332 21.4656 4.76805 21.3789 4.80151C21.2921 4.83497 21.1962 4.8565 21.0969 4.8648C20.9975 4.87311 20.8966 4.86804 20.8002 4.84989C20.7038 4.83174 20.6139 4.80087 20.5356 4.75911C20.4574 4.71735 20.3924 4.66555 20.3446 4.60675L20.3137 4.57106C20.0433 4.25644 19.6819 3.9809 19.2505 3.76049C18.8192 3.54008 18.3265 3.3792 17.8012 3.28722C17.6097 3.25246 17.4466 3.16842 17.3477 3.0535C17.2487 2.93858 17.222 2.80216 17.2734 2.6741ZM7.58337 15.5307C7.46024 15.6349 7.28019 15.7023 7.08277 15.7179C6.88536 15.7335 6.68674 15.6961 6.53056 15.614C5.40879 15.0221 4.46687 14.2923 3.75556 13.464C3.70631 13.407 3.67436 13.3441 3.66151 13.2788C3.64866 13.2136 3.65518 13.1473 3.68068 13.0837C3.70619 13.0202 3.75019 12.9606 3.81017 12.9084C3.87015 12.8562 3.94493 12.8124 4.03025 12.7795C4.11557 12.7466 4.20975 12.7252 4.30742 12.7167C4.40509 12.7081 4.50433 12.7124 4.59948 12.7295C4.69463 12.7465 4.78383 12.7759 4.86197 12.816C4.94012 12.856 5.00569 12.906 5.05493 12.963C5.67145 13.68 6.48732 14.3117 7.45869 14.8242C7.53664 14.865 7.60174 14.9157 7.65024 14.9733C7.69874 15.031 7.72967 15.0944 7.74126 15.1601C7.75286 15.2258 7.74487 15.2923 7.71777 15.3559C7.69067 15.4195 7.645 15.4789 7.58337 15.5307Z" fill="black"/>
</svg>
