<svg width="22" height="19" viewBox="0 0 22 19" fill="none" xmlns="http://www.w3.org/2000/svg">
<path d="M21.381 1.09406C21.313 0.988483 21.2196 0.901655 21.1094 0.841541C20.9992 0.781427 20.8756 0.749951 20.7501 0.75H13.2501C13.1061 0.750056 12.9652 0.791544 12.8442 0.86951C12.7231 0.947476 12.6271 1.05863 12.5676 1.18969L11.7444 3H1.62505C1.47977 3.00001 1.33763 3.04222 1.21588 3.12149C1.09414 3.20076 0.998039 3.31368 0.939257 3.44654C0.880476 3.57939 0.861545 3.72646 0.884763 3.86987C0.907982 4.01328 0.972351 4.14686 1.07005 4.25437L4.36161 7.875L1.07005 11.4956C0.972351 11.6031 0.907982 11.7367 0.884763 11.8801C0.861545 12.0235 0.880476 12.1706 0.939257 12.3035C0.998039 12.4363 1.09414 12.5492 1.21588 12.6285C1.33763 12.7078 1.47977 12.75 1.62505 12.75H8.47724C8.6212 12.7499 8.7621 12.7085 8.88313 12.6305C9.00415 12.5525 9.10017 12.4414 9.15974 12.3103L9.98286 10.5H15.8357L12.5676 17.6897C12.5237 17.7797 12.4983 17.8777 12.4929 17.9777C12.4875 18.0777 12.5021 18.1778 12.5361 18.2721C12.57 18.3663 12.6224 18.4529 12.6903 18.5265C12.7582 18.6002 12.8402 18.6595 12.9314 18.7009C13.0225 18.7424 13.1211 18.7652 13.2213 18.7679C13.3214 18.7707 13.4211 18.7533 13.5144 18.7169C13.6077 18.6805 13.6928 18.6258 13.7646 18.5559C13.8364 18.4861 13.8935 18.4026 13.9326 18.3103L21.4326 1.81031C21.4845 1.69614 21.5071 1.57075 21.4981 1.44562C21.4891 1.32048 21.4488 1.19961 21.381 1.09406ZM7.99443 11.25H3.32005L5.93005 8.37937C6.05548 8.24134 6.12498 8.06151 6.12498 7.875C6.12498 7.68849 6.05548 7.50866 5.93005 7.37063L3.32005 4.5H11.0629L7.99443 11.25ZM16.5172 9H10.6644L13.7329 2.25H19.5857L16.5172 9Z" fill="white"/>
</svg>
