<svg width="42" height="42" viewBox="0 0 42 42" fill="none" xmlns="http://www.w3.org/2000/svg">
<path d="M40.1625 24.675C40.0246 24.7784 39.8677 24.8537 39.7007 24.8964C39.5338 24.9392 39.36 24.9487 39.1894 24.9243C39.0188 24.8999 38.8546 24.8422 38.7063 24.7544C38.558 24.6666 38.4284 24.5504 38.325 24.4125C37.5339 23.3492 36.5042 22.4864 35.3188 21.8937C34.1334 21.301 32.8253 20.9949 31.5 21C31.2419 21 30.9896 20.9239 30.7745 20.7812C30.5594 20.6385 30.3912 20.4355 30.2909 20.1977C30.2227 20.0363 30.1876 19.8628 30.1876 19.6875C30.1876 19.5122 30.2227 19.3387 30.2909 19.1773C30.3912 18.9395 30.5594 18.7365 30.7745 18.5938C30.9896 18.4511 31.2419 18.375 31.5 18.375C32.2364 18.3749 32.9581 18.1684 33.583 17.7787C34.2079 17.3891 34.711 16.832 35.0352 16.1707C35.3593 15.5095 35.4916 14.7706 35.4168 14.0379C35.3421 13.3053 35.0634 12.6083 34.6124 12.0262C34.1614 11.444 33.5562 10.9999 32.8655 10.7445C32.1748 10.489 31.4263 10.4324 30.705 10.581C29.9837 10.7296 29.3186 11.0776 28.7851 11.5853C28.2517 12.093 27.8713 12.7401 27.6872 13.4531C27.6441 13.6201 27.5686 13.777 27.4648 13.9147C27.3611 14.0525 27.2313 14.1685 27.0828 14.2561C26.9342 14.3437 26.7699 14.4012 26.5991 14.4253C26.4284 14.4494 26.2546 14.4396 26.0876 14.3965C25.9206 14.3534 25.7638 14.2778 25.626 14.1741C25.4882 14.0704 25.3722 13.9406 25.2846 13.7921C25.197 13.6435 25.1395 13.4792 25.1154 13.3084C25.0914 13.1377 25.1011 12.9639 25.1442 12.7969C25.3998 11.8081 25.8826 10.8926 26.5542 10.1232C27.2258 9.35387 28.0677 8.75187 29.0129 8.36514C29.9581 7.97841 30.9805 7.81762 31.9988 7.89556C33.0171 7.9735 34.0032 8.28803 34.8785 8.81412C35.7538 9.3402 36.4943 10.0633 37.041 10.9259C37.5877 11.7886 37.9255 12.7669 38.0276 13.783C38.1297 14.7992 37.9932 15.8251 37.629 16.7792C37.2648 17.7334 36.6829 18.5893 35.9297 19.279C37.7144 20.0517 39.2658 21.2779 40.4299 22.8359C40.5333 22.9741 40.6085 23.1314 40.651 23.2987C40.6935 23.466 40.7026 23.6401 40.6778 23.8109C40.653 23.9818 40.5947 24.146 40.5062 24.2943C40.4178 24.4426 40.301 24.5719 40.1625 24.675ZM31.3228 34.7813C31.4178 34.9306 31.4816 35.0977 31.5103 35.2724C31.539 35.447 31.5321 35.6257 31.49 35.7976C31.4479 35.9696 31.3714 36.1312 31.2652 36.2728C31.159 36.4144 31.0253 36.5331 30.872 36.6217C30.7188 36.7103 30.5492 36.767 30.3734 36.7883C30.1977 36.8096 30.0195 36.7952 29.8495 36.7459C29.6795 36.6966 29.5212 36.6134 29.3842 36.5013C29.2472 36.3892 29.1342 36.2506 29.0522 36.0938C28.2254 34.6938 27.0479 33.5335 25.6358 32.7275C24.2237 31.9215 22.6259 31.4976 21 31.4976C19.3741 31.4976 17.7763 31.9215 16.3642 32.7275C14.9521 33.5335 13.7746 34.6938 12.9478 36.0938C12.8658 36.2506 12.7528 36.3892 12.6158 36.5013C12.4788 36.6134 12.3205 36.6966 12.1505 36.7459C11.9805 36.7952 11.8023 36.8096 11.6266 36.7883C11.4508 36.767 11.2813 36.7103 11.128 36.6217C10.9747 36.5331 10.841 36.4144 10.7348 36.2728C10.6286 36.1312 10.5521 35.9696 10.51 35.7976C10.4679 35.6257 10.461 35.447 10.4897 35.2724C10.5185 35.0977 10.5822 34.9306 10.6772 34.7813C11.9497 32.5949 13.8899 30.8744 16.2127 29.8725C14.9056 28.8718 13.945 27.4866 13.4659 25.9118C12.9868 24.3369 13.0133 22.6514 13.5416 21.0924C14.0699 19.5333 15.0735 18.179 16.4113 17.2198C17.7491 16.2606 19.3539 15.7447 21 15.7447C22.6462 15.7447 24.2509 16.2606 25.5887 17.2198C26.9265 18.179 27.9301 19.5333 28.4584 21.0924C28.9867 22.6514 29.0132 24.3369 28.5341 25.9118C28.055 27.4866 27.0944 28.8718 25.7874 29.8725C28.1102 30.8744 30.0504 32.5949 31.3228 34.7813ZM21 28.875C22.0384 28.875 23.0534 28.5671 23.9168 27.9902C24.7801 27.4133 25.453 26.5934 25.8504 25.6341C26.2477 24.6748 26.3517 23.6192 26.1491 22.6008C25.9466 21.5824 25.4465 20.6469 24.7123 19.9127C23.9781 19.1785 23.0426 18.6785 22.0242 18.4759C21.0058 18.2733 19.9502 18.3773 18.9909 18.7746C18.0316 19.172 17.2117 19.8449 16.6348 20.7083C16.0579 21.5716 15.75 22.5867 15.75 23.625C15.75 25.0174 16.3031 26.3527 17.2877 27.3373C18.2723 28.3219 19.6076 28.875 21 28.875ZM11.8125 19.6875C11.8125 19.3394 11.6742 19.0056 11.4281 18.7594C11.1819 18.5133 10.8481 18.375 10.5 18.375C9.76358 18.3749 9.04193 18.1684 8.41702 17.7787C7.79212 17.3891 7.28901 16.832 6.96484 16.1707C6.64068 15.5095 6.50845 14.7706 6.58318 14.0379C6.65791 13.3053 6.9366 12.6083 7.38759 12.0262C7.83859 11.444 8.44381 10.9999 9.13452 10.7445C9.82522 10.489 10.5737 10.4324 11.295 10.581C12.0163 10.7296 12.6814 11.0776 13.2149 11.5853C13.7483 12.093 14.1287 12.7401 14.3128 13.4531C14.3998 13.7903 14.6173 14.0792 14.9173 14.2561C15.2172 14.433 15.5752 14.4835 15.9124 14.3965C16.2497 14.3095 16.5385 14.092 16.7154 13.7921C16.8923 13.4921 16.9428 13.1341 16.8558 12.7969C16.6003 11.8081 16.1175 10.8926 15.4459 10.1232C14.7742 9.35387 13.9323 8.75187 12.9871 8.36514C12.0419 7.97841 11.0195 7.81762 10.0012 7.89556C8.9829 7.9735 7.99686 8.28803 7.12151 8.81412C6.24617 9.3402 5.50569 10.0633 4.959 10.9259C4.4123 11.7886 4.07448 12.7669 3.9724 13.783C3.87033 14.7992 4.00683 15.8251 4.37103 16.7792C4.73524 17.7334 5.3171 18.5893 6.07032 19.279C4.28743 20.0524 2.73774 21.2786 1.57501 22.8359C1.36593 23.1143 1.27605 23.4645 1.32512 23.8092C1.3742 24.154 1.55821 24.4651 1.83669 24.6742C2.11517 24.8833 2.46529 24.9731 2.81005 24.9241C3.1548 24.875 3.46593 24.691 3.67501 24.4125C4.4661 23.3492 5.4958 22.4864 6.68122 21.8937C7.86665 21.301 9.17467 20.9949 10.5 21C10.8481 21 11.1819 20.8617 11.4281 20.6156C11.6742 20.3694 11.8125 20.0356 11.8125 19.6875Z" fill="#333333"/>
</svg>
