<svg width="42" height="42" viewBox="0 0 42 42" fill="none" xmlns="http://www.w3.org/2000/svg">
<path d="M7.01531 8.20312C6.87411 8.32551 6.76068 8.47664 6.68259 8.6464C6.6045 8.81616 6.56355 9.00064 6.5625 9.18749V36.75C6.5625 37.0981 6.70078 37.4319 6.94692 37.6781C7.19306 37.9242 7.5269 38.0625 7.875 38.0625C8.2231 38.0625 8.55694 37.9242 8.80308 37.6781C9.04922 37.4319 9.1875 37.0981 9.1875 36.75V29.4935C13.5827 26.0219 17.3693 27.8939 21.7301 30.053C24.4207 31.3835 27.318 32.8174 30.4254 32.8174C32.7108 32.8174 35.1077 32.0381 37.6146 29.8643C37.7558 29.7419 37.8692 29.5908 37.9473 29.421C38.0254 29.2513 38.0664 29.0668 38.0674 28.8799V9.18749C38.0668 8.93557 37.9937 8.68914 37.8569 8.47762C37.72 8.26611 37.5252 8.09845 37.2957 7.99466C37.0661 7.89087 36.8115 7.85533 36.5623 7.8923C36.3131 7.92926 36.0798 8.03716 35.8903 8.20312C31.2966 12.1784 27.405 10.2523 22.8949 8.01937C18.2224 5.70281 12.9248 3.08273 7.01531 8.20312ZM35.4375 28.2598C31.0423 31.7313 27.2557 29.8577 22.8949 27.7003C18.7934 25.6741 14.2308 23.4134 9.1875 26.3222V9.80929C13.5827 6.33773 17.3693 8.20968 21.7301 10.3671C25.8316 12.3933 30.3959 14.6541 35.4375 11.7452V28.2598Z" fill="#333333"/>
</svg>
