<svg width="42" height="42" viewBox="0 0 42 42" fill="none" xmlns="http://www.w3.org/2000/svg">
<path d="M37.7885 23.1427C37.3593 22.8119 36.8673 22.5719 36.3424 22.4374C35.8175 22.3028 35.2707 22.2765 34.7353 22.3601C37.8164 19.2495 39.375 16.1569 39.375 13.125C39.375 8.78227 35.8821 5.25 31.5886 5.25C30.4494 5.24285 29.3224 5.48514 28.2867 5.95988C27.2511 6.43462 26.3319 7.13029 25.5938 7.99805C24.8556 7.13029 23.9364 6.43462 22.9008 5.95988C21.8651 5.48514 20.7381 5.24285 19.5989 5.25C15.3054 5.25 11.8125 8.78227 11.8125 13.125C11.8125 14.9297 12.3441 16.6835 13.463 18.5391C12.5466 18.7712 11.7103 19.2475 11.043 19.9172L7.33195 23.625H2.625C1.92881 23.625 1.26113 23.9016 0.768845 24.3938C0.276562 24.8861 0 25.5538 0 26.25L0 32.8125C0 33.5087 0.276562 34.1764 0.768845 34.6687C1.26113 35.1609 1.92881 35.4375 2.625 35.4375H19.6875C19.7948 35.4376 19.9017 35.4243 20.0058 35.3981L30.5058 32.7731C30.5727 32.7572 30.6381 32.7352 30.701 32.7075L37.0781 29.9939L37.1503 29.9611C37.7632 29.6548 38.288 29.1976 38.6754 28.6325C39.0627 28.0673 39.2998 27.4128 39.3643 26.7307C39.4288 26.0486 39.3186 25.3614 39.044 24.7336C38.7695 24.1059 38.3397 23.5584 37.7951 23.1427H37.7885ZM19.5989 7.875C20.6155 7.86012 21.6133 8.14878 22.465 8.70406C23.3166 9.25934 23.9833 10.056 24.3797 10.9922C24.4786 11.2329 24.6468 11.4388 24.863 11.5837C25.0791 11.7286 25.3335 11.806 25.5938 11.806C25.854 11.806 26.1084 11.7286 26.3245 11.5837C26.5407 11.4388 26.7089 11.2329 26.8078 10.9922C27.2042 10.056 27.8709 9.25934 28.7225 8.70406C29.5742 8.14878 30.572 7.86012 31.5886 7.875C34.3859 7.875 36.75 10.2785 36.75 13.125C36.75 16.3259 34.1595 19.9467 29.2589 23.6086L27.4395 24.027C27.5992 23.3523 27.6041 22.6503 27.4539 21.9735C27.3037 21.2967 27.0022 20.6626 26.5721 20.1189C26.142 19.5751 25.5944 19.1358 24.9704 18.8338C24.3463 18.5318 23.662 18.3749 22.9688 18.375H16.5178C15.102 16.4653 14.4375 14.7853 14.4375 13.125C14.4375 10.2785 16.8016 7.875 19.5989 7.875ZM2.625 26.25H6.5625V32.8125H2.625V26.25ZM36.0002 27.597L29.7659 30.2515L19.5234 32.8125H9.1875V25.4805L12.9002 21.7695C13.1431 21.5246 13.4322 21.3305 13.7508 21.1985C14.0693 21.0664 14.4109 20.9989 14.7558 21H22.9688C23.4909 21 23.9917 21.2074 24.3609 21.5766C24.7301 21.9458 24.9375 22.4466 24.9375 22.9688C24.9375 23.4909 24.7301 23.9917 24.3609 24.3609C23.9917 24.7301 23.4909 24.9375 22.9688 24.9375H18.375C18.0269 24.9375 17.6931 25.0758 17.4469 25.3219C17.2008 25.5681 17.0625 25.9019 17.0625 26.25C17.0625 26.5981 17.2008 26.9319 17.4469 27.1781C17.6931 27.4242 18.0269 27.5625 18.375 27.5625H23.625C23.7238 27.5622 23.8223 27.5512 23.9187 27.5297L34.9109 25.0015L34.9617 24.9884C35.2973 24.8952 35.6554 24.9294 35.9673 25.0845C36.2791 25.2395 36.5226 25.5044 36.6509 25.8281C36.7791 26.1519 36.7832 26.5117 36.6621 26.8382C36.5411 27.1647 36.3036 27.435 35.9953 27.597H36.0002Z" fill="#333333"/>
</svg>
