<svg width="42" height="42" viewBox="0 0 42 42" fill="none" xmlns="http://www.w3.org/2000/svg">
<path d="M32.4154 21.1739L23.9531 18.0469L20.8359 9.57797C20.6513 9.07648 20.3173 8.64368 19.879 8.33796C19.4407 8.03225 18.9192 7.86833 18.3848 7.86833C17.8504 7.86833 17.3289 8.03225 16.8906 8.33796C16.4523 8.64368 16.1183 9.07648 15.9337 9.57797L12.7968 18.0469L4.32792 21.1641C3.82643 21.3487 3.39363 21.6826 3.08792 22.1209C2.7822 22.5592 2.61829 23.0808 2.61829 23.6152C2.61829 24.1495 2.7822 24.6711 3.08792 25.1094C3.39363 25.5477 3.82643 25.8817 4.32792 26.0662L12.7968 29.2031L15.914 37.672C16.0986 38.1735 16.4326 38.6063 16.8709 38.912C17.3092 39.2178 17.8307 39.3817 18.3651 39.3817C18.8995 39.3817 19.421 39.2178 19.8593 38.912C20.2976 38.6063 20.6316 38.1735 20.8162 37.672L23.9531 29.2031L32.422 26.0859C32.9235 25.9013 33.3563 25.5674 33.662 25.1291C33.9677 24.6908 34.1316 24.1692 34.1316 23.6348C34.1316 23.1005 33.9677 22.5789 33.662 22.1406C33.3563 21.7023 32.9235 21.3683 32.422 21.1838L32.4154 21.1739ZM22.4765 26.9423C22.2984 27.008 22.1366 27.1115 22.0023 27.2458C21.8681 27.3801 21.7645 27.5418 21.6989 27.72L18.375 36.7254L15.0576 27.7266C14.9921 27.5465 14.8879 27.383 14.7524 27.2476C14.6169 27.1121 14.4534 27.0079 14.2734 26.9423L5.27457 23.625L14.2734 20.3077C14.4534 20.2421 14.6169 20.1379 14.7524 20.0024C14.8879 19.867 14.9921 19.7035 15.0576 19.5234L18.375 10.5246L21.6923 19.5234C21.758 19.7016 21.8615 19.8634 21.9957 19.9976C22.13 20.1319 22.2918 20.2354 22.47 20.3011L31.4753 23.625L22.4765 26.9423ZM23.625 6.5625C23.625 6.2144 23.7632 5.88056 24.0094 5.63442C24.2555 5.38828 24.5894 5.25 24.9375 5.25H27.5625V2.625C27.5625 2.2769 27.7007 1.94306 27.9469 1.69692C28.193 1.45078 28.5269 1.3125 28.875 1.3125C29.2231 1.3125 29.5569 1.45078 29.803 1.69692C30.0492 1.94306 30.1875 2.2769 30.1875 2.625V5.25H32.8125C33.1606 5.25 33.4944 5.38828 33.7405 5.63442C33.9867 5.88056 34.125 6.2144 34.125 6.5625C34.125 6.9106 33.9867 7.24444 33.7405 7.49058C33.4944 7.73672 33.1606 7.875 32.8125 7.875H30.1875V10.5C30.1875 10.8481 30.0492 11.1819 29.803 11.4281C29.5569 11.6742 29.2231 11.8125 28.875 11.8125C28.5269 11.8125 28.193 11.6742 27.9469 11.4281C27.7007 11.1819 27.5625 10.8481 27.5625 10.5V7.875H24.9375C24.5894 7.875 24.2555 7.73672 24.0094 7.49058C23.7632 7.24444 23.625 6.9106 23.625 6.5625ZM40.6875 14.4375C40.6875 14.7856 40.5492 15.1194 40.303 15.3656C40.0569 15.6117 39.7231 15.75 39.375 15.75H38.0625V17.0625C38.0625 17.4106 37.9242 17.7444 37.678 17.9906C37.4319 18.2367 37.0981 18.375 36.75 18.375C36.4019 18.375 36.068 18.2367 35.8219 17.9906C35.5757 17.7444 35.4375 17.4106 35.4375 17.0625V15.75H34.125C33.7769 15.75 33.443 15.6117 33.1969 15.3656C32.9507 15.1194 32.8125 14.7856 32.8125 14.4375C32.8125 14.0894 32.9507 13.7556 33.1969 13.5094C33.443 13.2633 33.7769 13.125 34.125 13.125H35.4375V11.8125C35.4375 11.4644 35.5757 11.1306 35.8219 10.8844C36.068 10.6383 36.4019 10.5 36.75 10.5C37.0981 10.5 37.4319 10.6383 37.678 10.8844C37.9242 11.1306 38.0625 11.4644 38.0625 11.8125V13.125H39.375C39.7231 13.125 40.0569 13.2633 40.303 13.5094C40.5492 13.7556 40.6875 14.0894 40.6875 14.4375Z" fill="#333333"/>
</svg>
